<?xml version="1.0" encoding="UTF-8" standalone="no"?>
<svg
   version="1.1"
   id="svg891"
   xml:space="preserve"
   width="64"
   height="64"
   viewBox="0 0 64 64"
   sodipodi:docname="altn8-th.svg"
   inkscape:version="1.3.2 (091e20ef0f, 2023-11-25)"
   inkscape:export-filename="png/andrena-gitlab-noblue-24.png"
   inkscape:export-xdpi="36"
   inkscape:export-ydpi="36"
   xmlns:inkscape="http://www.inkscape.org/namespaces/inkscape"
   xmlns:sodipodi="http://sodipodi.sourceforge.net/DTD/sodipodi-0.dtd"
   xmlns="http://www.w3.org/2000/svg"
   xmlns:svg="http://www.w3.org/2000/svg"
   xmlns:rdf="http://www.w3.org/1999/02/22-rdf-syntax-ns#"
   xmlns:cc="http://creativecommons.org/ns#"
   xmlns:dc="http://purl.org/dc/elements/1.1/"><metadata
     id="metadata897"><rdf:RDF><cc:Work
         rdf:about=""><dc:format>image/svg+xml</dc:format><dc:type
           rdf:resource="http://purl.org/dc/dcmitype/StillImage" /></cc:Work></rdf:RDF></metadata><defs
     id="defs895"><clipPath
       clipPathUnits="userSpaceOnUse"
       id="clipPath1"><path
         d="m -7830.8369,-10788.117 h -4.7191 c -41.0443,0 -59.4433,11.716 -59.4433,38.079 0,18.55 12.7381,34.118 29.25,34.118 14.3658,0 26.5773,-4.13 34.9124,-8.263 z m 54.7233,47.357 c 0,10.522 0.5335,34.175 1.4188,47.203 -28.3858,8.5 -62.3618,18.699 -98.769,18.699 -48.3767,0 -76.7322,-27.827 -76.7322,-71.761 0,-32.71 12.736,-54.679 38.6861,-66.883 20.7572,-9.763 39.1554,-13.182 76.8977,-13.669 h 3.7753 v -11.876 c 0,-27.339 -7.0773,-35.637 -30.6652,-35.637 -13.6825,0 -29.722,3.906 -50.9516,12.691 -2.54,1.051 -6.2236,2.642 -7.4301,3.247 l -14.9397,-44.546 c 3.0421,-1.467 5.3846,-2.636 15.2919,-6.544 19.8159,-7.321 42.4613,-11.714 65.1054,-11.714 41.0457,0 67.463,16.11 75.4839,45.404 2.3597,8.785 2.8287,16.593 2.8287,30.75 v 104.636"
         style="fill:#1c4f9c;fill-opacity:1;fill-rule:nonzero;stroke:none;stroke-width:0.178103"
         id="path1"
         inkscape:label="andrena a" /></clipPath></defs><sodipodi:namedview
     pagecolor="#ffffff"
     bordercolor="#666666"
     borderopacity="1"
     objecttolerance="10"
     gridtolerance="10"
     guidetolerance="10"
     inkscape:pageopacity="0"
     inkscape:pageshadow="2"
     inkscape:window-width="2560"
     inkscape:window-height="1373"
     id="namedview893"
     showgrid="false"
     inkscape:zoom="4.238942"
     inkscape:cx="-26.539642"
     inkscape:cy="75.726444"
     inkscape:window-x="0"
     inkscape:window-y="0"
     inkscape:window-maximized="1"
     inkscape:current-layer="g899"
     inkscape:showpageshadow="2"
     inkscape:pagecheckerboard="0"
     inkscape:deskcolor="#d1d1d1" /><g
     id="g899"
     inkscape:groupmode="layer"
     inkscape:label="andrena-gitlab"
     transform="matrix(1.3333333,0,0,-1.3333333,0,412.66667)"><g
       id="Gruppe_21605"
       data-name="Gruppe 21605"
       transform="matrix(0.19553882,0,0,-0.18896643,1561.4133,-1754.9981)"
       clip-path="url(#clipPath1)"><g
         id="Gruppe_21600"
         data-name="Gruppe 21600"
         transform="translate(0,1.007)"><g
           id="Gruppe_21596"
           data-name="Gruppe 21596"
           transform="translate(0,751)"><path
             id="Path-2-Copy-14"
             d="M 8.371,0 36.084,24.662 0,34.234 Z"
             transform="rotate(101,822.31552,-9191.6166)"
             fill="#8fd948"
             fill-rule="evenodd"
             opacity="0.6" /><g
             id="Gruppe_21601"
             data-name="Gruppe 21601"><path
               id="Path-468"
               d="M 279.1,0 162.344,448.873 95.784,345.58 0,167.274 5.575,33.785 Z"
               transform="rotate(101,964.84048,-8988.949)"
               fill="#efefef"
               fill-rule="evenodd"
               style="isolation:isolate;mix-blend-mode:multiply" /><path
               id="Path-469-Copy"
               d="M 17.93,37.036 0,13.136 45.832,0 Z"
               transform="rotate(101,977.02906,-9081.3714)"
               fill="#ffffff"
               fill-rule="evenodd" /><path
               id="Mask"
               d="M 0,324.152 310.031,0 417.475,390.028 Z"
               transform="rotate(-79,-10966.594,-755.37624)"
               fill="#95df4b"
               fill-rule="evenodd" /><path
               id="Path-12"
               d="M 40.925,134 0,287.87 407.257,353.2 168.944,0 Z"
               transform="rotate(-79,-10981.904,-836.85518)"
               fill="#4bb41f"
               fill-rule="evenodd" /><path
               id="Path-2-Copy-18"
               d="M 58.208,0 V 39.288 L 0,20.418 Z"
               transform="rotate(101,925.64687,-8871.5612)"
               fill="#8fd948"
               fill-rule="evenodd"
               opacity="0.6" /><path
               id="Path-2-Copy-9"
               d="m 35.294,0 8.743,35.21 H 0 Z"
               transform="rotate(101,1029.1427,-8955.9229)"
               fill="#efefef"
               fill-rule="evenodd" /></g><path
             id="Path-2-Copy-10"
             d="M 14.693,0 V 21.965 L 0,11.415 Z"
             transform="rotate(101,927.66722,-9126.7934)"
             fill="#d6d6d6"
             fill-rule="evenodd" /><path
             id="Path-2-Copy-15"
             d="M 38.244,39.043 75.653,0 0,20.455 Z"
             transform="rotate(-134,-6423.8365,-3996.7151)"
             fill="#efefef"
             fill-rule="evenodd" /><path
             id="Pfad_41592"
             data-name="Pfad 41592"
             d="M 0,92.53 218.029,0 186.584,84.357 Z"
             transform="translate(-7858.244,-11789.805)"
             fill="#6cb759" /></g><g
           id="Gruppe_21603"
           data-name="Gruppe 21603"><path
             id="Pfad_41671"
             data-name="Pfad 41671"
             d="m 128.939,94.861 c -0.789,1.79 -1.666,3.561 -2.6,5.272 A 67.6,67.6 0 0 1 67.08,135.168 H 67.058 A 67.629,67.629 0 0 1 41.617,130.212 67.2,67.2 0 0 1 19.248,115.364 67.914,67.914 0 0 1 9.66,103.333 67.234,67.234 0 0 1 3.2,89.9 M 0,58.9 a 1.831,1.831 0 0 1 0.013,-0.225 c 0.256,-1.936 0.6,-3.884 1.027,-5.793 A 67.526,67.526 0 0 1 54.132,1.239 68.16,68.16 0 0 1 67.044,0 h 0.014 A 67.842,67.842 0 0 1 92.5,4.951 67.529,67.529 0 0 1 134.582,63.98"
             transform="matrix(0.866,-0.5,0.5,0.866,-7947.118,-10859.627)"
             fill="none"
             stroke="#ffffff"
             stroke-linecap="round"
             stroke-miterlimit="10"
             stroke-width="4" /><path
             id="Pfad_41672"
             data-name="Pfad 41672"
             d="m 64.976,101.341 a 52.774,52.774 0 0 1 -5.806,1.2 51.829,51.829 0 0 1 -7.591,0.556 H 51.57 A 51.551,51.551 0 1 1 51.57,0 h 0.018 a 51.53,51.53 0 0 1 39.817,84.308"
             transform="matrix(0.899,-0.438,0.438,0.899,-7924.228,-10858.562)"
             fill="none"
             stroke="#ffffff"
             stroke-linecap="round"
             stroke-miterlimit="10"
             stroke-width="4" /><rect
             id="Rechteck_652"
             data-name="Rechteck 652"
             width="47.154999"
             height="17.193001"
             rx="5"
             transform="rotate(66,4375.2384,-11388.119)"
             fill="none"
             stroke="#ffffff"
             stroke-miterlimit="10"
             stroke-width="4"
             x="0"
             y="0" /><path
             id="Pfad_41673"
             data-name="Pfad 41673"
             d="M 0,0 18.93,19.182"
             transform="rotate(21,25152.602,-26501.143)"
             fill="none"
             stroke="#ffffff"
             stroke-width="4" /></g></g></g><g
       inkscape:groupmode="layer"
       id="layer2"
       inkscape:label="andrena logo"
       transform="matrix(0.75000002,0,0,-0.75000002,0,309.50001)"
       style="display:inline" /></g></svg>
